<svg width="256" height="256" viewBox="0 0 256 256" fill="none" xmlns="http://www.w3.org/2000/svg">
<g filter="url(#filter0_d_4004_133)">
<path fill-rule="evenodd" clip-rule="evenodd" d="M231 88.8453C231 86.4117 231.001 83.9778 230.986 81.544C230.974 79.4937 230.95 77.444 230.894 75.3947C230.773 70.9283 230.508 66.4235 229.71 62.0068C228.9 57.5265 227.579 53.3566 225.495 49.2857C223.447 45.2845 220.772 41.6231 217.58 38.4488C214.389 35.2746 210.709 32.6141 206.686 30.5773C202.591 28.5036 198.397 27.1886 193.889 26.3832C189.451 25.5901 184.923 25.3272 180.435 25.2065C178.374 25.151 176.313 25.1276 174.252 25.1149C171.805 25.1 169.358 25.1013 166.911 25.1013L138.499 25H117.249L89.3403 25.1013C86.8885 25.1013 84.4368 25.1 81.9851 25.1149C79.9196 25.1276 77.8551 25.151 75.7904 25.2065C71.2917 25.3272 66.7534 25.5904 62.3042 26.3845C57.791 27.1896 53.59 28.5041 49.4896 30.5763C45.4588 32.6133 41.7706 35.2741 38.5726 38.4488C35.3752 41.6229 32.6949 45.2835 30.6432 49.284C28.5542 53.3568 27.2297 57.5292 26.4182 62.0121C25.6192 66.427 25.3545 70.9303 25.2327 75.3947C25.1772 77.4442 25.1532 79.494 25.1407 81.544C25.1257 83.9781 25 87.0016 25 89.4354L25.0007 116.824L25 138.197L25.127 166.168C25.127 168.605 25.126 171.042 25.1407 173.479C25.1532 175.532 25.1772 177.585 25.233 179.637C25.3545 184.109 25.6197 188.621 26.4195 193.043C27.2307 197.53 28.555 201.705 30.6422 205.781C32.6942 209.788 35.3749 213.455 38.5726 216.633C41.7704 219.812 45.4576 222.476 49.4876 224.516C53.5905 226.592 57.7935 227.909 62.3095 228.715C66.7567 229.51 71.2934 229.773 75.7904 229.894C77.8551 229.949 79.9198 229.973 81.9853 229.985C84.4371 230 86.8885 229.999 89.3403 229.999L117.502 230H138.804L166.911 229.999C169.358 229.999 171.805 230 174.252 229.985C176.313 229.973 178.374 229.949 180.435 229.894C184.925 229.773 189.454 229.509 193.895 228.714C198.399 227.908 202.592 226.592 206.685 224.517C210.708 222.477 214.389 219.812 217.58 216.633C220.772 213.455 223.447 209.789 225.495 205.783C227.579 201.705 228.901 197.527 229.711 193.038C230.508 188.617 230.773 184.108 230.894 179.637C230.95 177.585 230.974 175.532 230.986 173.479C231.001 171.042 231 168.605 231 166.168C231 166.168 230.998 138.691 230.998 138.197V116.802C230.998 116.437 231 88.8453 231 88.8453Z" fill="white"/>
</g>
<mask id="mask0_4004_133" style="mask-type:luminance" maskUnits="userSpaceOnUse" x="25" y="25" width="206" height="205">
<path fill-rule="evenodd" clip-rule="evenodd" d="M231 88.8453C231 86.4117 231.001 83.9778 230.986 81.544C230.974 79.4937 230.95 77.444 230.894 75.3947C230.773 70.9283 230.508 66.4235 229.71 62.0068C228.9 57.5265 227.579 53.3566 225.495 49.2857C223.447 45.2845 220.772 41.6231 217.58 38.4488C214.389 35.2746 210.709 32.6141 206.686 30.5773C202.591 28.5036 198.397 27.1886 193.889 26.3832C189.451 25.5901 184.923 25.3272 180.435 25.2065C178.374 25.151 176.313 25.1276 174.252 25.1149C171.805 25.1 169.358 25.1013 166.911 25.1013L138.499 25H117.249L89.3403 25.1013C86.8885 25.1013 84.4368 25.1 81.9851 25.1149C79.9196 25.1276 77.8551 25.151 75.7904 25.2065C71.2917 25.3272 66.7534 25.5904 62.3042 26.3845C57.791 27.1896 53.59 28.5041 49.4896 30.5763C45.4588 32.6133 41.7706 35.2741 38.5726 38.4488C35.3752 41.6229 32.6949 45.2835 30.6432 49.284C28.5542 53.3568 27.2297 57.5292 26.4182 62.0121C25.6192 66.427 25.3545 70.9303 25.2327 75.3947C25.1772 77.4442 25.1532 79.494 25.1407 81.544C25.1257 83.9781 25 87.0016 25 89.4354L25.0007 116.824L25 138.197L25.127 166.168C25.127 168.605 25.126 171.042 25.1407 173.479C25.1532 175.532 25.1772 177.585 25.233 179.637C25.3545 184.109 25.6197 188.621 26.4195 193.043C27.2307 197.53 28.555 201.705 30.6422 205.781C32.6942 209.788 35.3749 213.455 38.5726 216.633C41.7704 219.812 45.4576 222.476 49.4876 224.516C53.5905 226.592 57.7935 227.909 62.3095 228.715C66.7567 229.51 71.2934 229.773 75.7904 229.894C77.8551 229.949 79.9198 229.973 81.9853 229.985C84.4371 230 86.8885 229.999 89.3403 229.999L117.502 230H138.804L166.911 229.999C169.358 229.999 171.805 230 174.252 229.985C176.313 229.973 178.374 229.949 180.435 229.894C184.925 229.773 189.454 229.509 193.895 228.714C198.399 227.908 202.592 226.592 206.685 224.517C210.708 222.477 214.389 219.812 217.58 216.633C220.772 213.455 223.447 209.789 225.495 205.783C227.579 201.705 228.901 197.527 229.711 193.038C230.508 188.617 230.773 184.108 230.894 179.637C230.95 177.585 230.974 175.532 230.986 173.479C231.001 171.042 231 168.605 231 166.168C231 166.168 230.998 138.691 230.998 138.197V116.802C230.998 116.437 231 88.8453 231 88.8453Z" fill="white"/>
</mask>
<g mask="url(#mask0_4004_133)">
<rect width="256" height="256" rx="2" fill="url(#paint0_linear_4004_133)"/>
<mask id="path-4-inside-1_4004_133" fill="white">
<path fill-rule="evenodd" clip-rule="evenodd" d="M231 88.8453C231 86.4117 231.001 83.9778 230.986 81.544C230.974 79.4937 230.95 77.444 230.894 75.3947C230.773 70.9283 230.508 66.4235 229.71 62.0068C228.9 57.5265 227.579 53.3566 225.495 49.2857C223.447 45.2845 220.772 41.6231 217.58 38.4488C214.389 35.2746 210.709 32.6141 206.686 30.5773C202.591 28.5036 198.397 27.1886 193.889 26.3832C189.451 25.5901 184.923 25.3272 180.435 25.2065C178.374 25.151 176.313 25.1276 174.252 25.1149C171.805 25.1 169.358 25.1013 166.911 25.1013L138.499 25H117.249L89.3403 25.1013C86.8885 25.1013 84.4368 25.1 81.9851 25.1149C79.9196 25.1276 77.8551 25.151 75.7904 25.2065C71.2917 25.3272 66.7534 25.5904 62.3042 26.3845C57.791 27.1896 53.59 28.5041 49.4896 30.5763C45.4588 32.6133 41.7706 35.2741 38.5726 38.4488C35.3752 41.6229 32.6949 45.2835 30.6432 49.284C28.5542 53.3568 27.2297 57.5292 26.4182 62.0121C25.6192 66.427 25.3545 70.9303 25.2327 75.3947C25.1772 77.4442 25.1532 79.494 25.1407 81.544C25.1257 83.9781 25 87.0016 25 89.4354L25.0007 116.824L25 138.197L25.127 166.168C25.127 168.605 25.126 171.042 25.1407 173.479C25.1532 175.532 25.1772 177.585 25.233 179.637C25.3545 184.109 25.6197 188.621 26.4195 193.043C27.2307 197.53 28.555 201.705 30.6422 205.781C32.6942 209.788 35.3749 213.455 38.5726 216.633C41.7704 219.812 45.4576 222.476 49.4876 224.516C53.5905 226.592 57.7935 227.909 62.3095 228.715C66.7567 229.51 71.2934 229.773 75.7904 229.894C77.8551 229.949 79.9198 229.973 81.9853 229.985C84.4371 230 86.8885 229.999 89.3403 229.999L117.502 230H138.804L166.911 229.999C169.358 229.999 171.805 230 174.252 229.985C176.313 229.973 178.374 229.949 180.435 229.894C184.925 229.773 189.454 229.509 193.895 228.714C198.399 227.908 202.592 226.592 206.685 224.517C210.708 222.477 214.389 219.812 217.58 216.633C220.772 213.455 223.447 209.789 225.495 205.783C227.579 201.705 228.901 197.527 229.711 193.038C230.508 188.617 230.773 184.108 230.894 179.637C230.95 177.585 230.974 175.532 230.986 173.479C231.001 171.042 231 168.605 231 166.168C231 166.168 230.998 138.691 230.998 138.197V116.802C230.998 116.437 231 88.8453 231 88.8453"/>
</mask>
<path d="M230.986 81.544L227.986 81.5619V81.5625L230.986 81.544ZM230.894 75.3947L227.895 75.476L227.895 75.4767L230.894 75.3947ZM229.71 62.0068L226.758 62.5402L226.758 62.5404L229.71 62.0068ZM225.495 49.2857L228.166 47.919L228.166 47.9188L225.495 49.2857ZM217.58 38.4488L215.464 40.5758L215.465 40.5761L217.58 38.4488ZM206.686 30.5773L208.042 27.9009L208.042 27.9009L206.686 30.5773ZM193.889 26.3832L193.362 29.3365L193.362 29.3365L193.889 26.3832ZM180.435 25.2065L180.354 28.2054L180.354 28.2054L180.435 25.2065ZM174.252 25.1149L174.27 22.115L174.27 22.115L174.252 25.1149ZM166.911 25.1013L166.9 28.1013H166.911V25.1013ZM138.499 25L138.51 22H138.499V25ZM117.249 25V22L117.238 22L117.249 25ZM89.3403 25.1013V28.1013L89.3512 28.1012L89.3403 25.1013ZM81.9851 25.1149L81.9668 22.115L81.9666 22.115L81.9851 25.1149ZM75.7904 25.2065L75.8708 28.2054L75.871 28.2054L75.7904 25.2065ZM62.3042 26.3845L62.831 29.3379L62.8313 29.3378L62.3042 26.3845ZM49.4896 30.5763L48.1365 27.8987L48.1364 27.8988L49.4896 30.5763ZM38.5726 38.4488L40.6861 40.578L40.6862 40.5779L38.5726 38.4488ZM30.6432 49.284L33.3126 50.6531L33.3126 50.653L30.6432 49.284ZM26.4182 62.0121L23.4662 61.4777L23.4662 61.4778L26.4182 62.0121ZM25.2327 75.3947L22.2339 75.313L22.2338 75.3135L25.2327 75.3947ZM25.1407 81.544L28.1407 81.5625L28.1407 81.5623L25.1407 81.544ZM25 89.4354H22V89.4355L25 89.4354ZM25.0007 116.824L28.0008 116.824V116.824L25.0007 116.824ZM25 138.197L22 138.197L22 138.211L25 138.197ZM25.127 166.168H28.127L28.127 166.154L25.127 166.168ZM25.1407 173.479L22.1408 173.498L22.1408 173.498L25.1407 173.479ZM25.233 179.637L22.2341 179.719H22.2341L25.233 179.637ZM26.4195 193.043L29.3716 192.509L29.3716 192.509L26.4195 193.043ZM30.6422 205.781L27.9719 207.149L27.972 207.149L30.6422 205.781ZM49.4876 224.516L48.1328 227.192L48.133 227.193L49.4876 224.516ZM62.3095 228.715L62.837 225.762L62.8368 225.762L62.3095 228.715ZM75.7904 229.894L75.871 226.895H75.8708L75.7904 229.894ZM81.9853 229.985L82.0036 226.985H82.0034L81.9853 229.985ZM89.3403 229.999L89.3403 226.999H89.3403V229.999ZM117.502 230L117.501 233H117.502V230ZM138.804 230V233H138.804L138.804 230ZM166.911 229.999V226.999H166.911L166.911 229.999ZM174.252 229.985L174.234 226.985H174.234L174.252 229.985ZM180.435 229.894L180.515 232.893H180.515L180.435 229.894ZM193.895 228.714L194.423 231.667H194.423L193.895 228.714ZM206.685 224.517L205.328 221.841L205.328 221.841L206.685 224.517ZM217.58 216.633L215.463 214.508L215.463 214.508L217.58 216.633ZM225.495 205.783L228.166 207.149L228.166 207.149L225.495 205.783ZM229.711 193.038L232.663 193.571L232.663 193.571L229.711 193.038ZM230.894 179.637L227.895 179.556V179.556L230.894 179.637ZM230.986 173.479L227.986 173.461V173.462L230.986 173.479ZM231 166.168H234V166.168L231 166.168ZM231 88.8453H234C234 86.4145 234.001 83.9705 233.986 81.5255L230.986 81.544L227.986 81.5625C228.001 83.9852 228 86.4089 228 88.8453H231ZM230.986 81.544L233.986 81.526C233.974 79.4658 233.95 77.3923 233.893 75.3128L230.894 75.3947L227.895 75.4767C227.95 77.4957 227.974 79.5217 227.986 81.5619L230.986 81.544ZM230.894 75.3947L233.893 75.3135C233.771 70.7971 233.501 66.114 232.662 61.4733L229.71 62.0068L226.758 62.5404C227.516 66.733 227.775 71.0595 227.895 75.476L230.894 75.3947ZM229.71 62.0068L232.662 61.4735C231.807 56.7404 230.4 52.2841 228.166 47.919L225.495 49.2857L222.825 50.6524C224.757 54.429 225.994 58.3125 226.758 62.5402L229.71 62.0068ZM225.495 49.2857L228.166 47.9188C225.973 43.6356 223.111 39.7178 219.695 36.3216L217.58 38.4488L215.465 40.5761C218.433 43.5284 220.921 46.9333 222.825 50.6526L225.495 49.2857ZM217.58 38.4488L219.696 36.3219C216.282 32.9258 212.345 30.0799 208.042 27.9009L206.686 30.5773L205.331 33.2537C209.072 35.1483 212.496 37.6233 215.464 40.5758L217.58 38.4488ZM206.686 30.5773L208.042 27.9009C203.654 25.6788 199.174 24.28 194.417 23.43L193.889 26.3832L193.362 29.3365C197.619 30.0971 201.529 31.3285 205.331 33.2537L206.686 30.5773ZM193.889 26.3832L194.417 23.43C189.757 22.5973 185.052 22.3296 180.515 22.2076L180.435 25.2065L180.354 28.2054C184.793 28.3248 189.145 28.583 193.362 29.3365L193.889 26.3832ZM180.435 25.2065L180.515 22.2076C178.425 22.1513 176.341 22.1277 174.27 22.115L174.252 25.1149L174.233 28.1149C176.286 28.1275 178.323 28.1507 180.354 28.2054L180.435 25.2065ZM174.252 25.1149L174.27 22.115C171.812 22.1 169.355 22.1013 166.911 22.1013V25.1013V28.1013C169.361 28.1013 171.798 28.1 174.234 28.1149L174.252 25.1149ZM166.911 25.1013L166.922 22.1013L138.51 22L138.499 25L138.488 28L166.9 28.1012L166.911 25.1013ZM138.499 25V22H117.249V25V28H138.499V25ZM117.249 25L117.238 22L89.3294 22.1013L89.3403 25.1013L89.3512 28.1012L117.26 28L117.249 25ZM89.3403 25.1013V22.1013C86.8916 22.1013 84.4297 22.1 81.9668 22.115L81.9851 25.1149L82.0033 28.1149C84.444 28.1 86.8855 28.1013 89.3403 28.1013V25.1013ZM81.9851 25.1149L81.9666 22.115C79.8921 22.1277 77.8043 22.1513 75.7098 22.2076L75.7904 25.2065L75.871 28.2054C77.9059 28.1507 79.9471 28.1275 82.0035 28.1149L81.9851 25.1149ZM75.7904 25.2065L75.7099 22.2076C71.1622 22.3295 66.4478 22.5975 61.7771 23.4312L62.3042 26.3845L62.8313 29.3378C67.0591 28.5832 71.4211 28.3248 75.8708 28.2054L75.7904 25.2065ZM62.3042 26.3845L61.7774 23.4311C57.0148 24.2807 52.5298 25.6786 48.1365 27.8987L49.4896 30.5763L50.8426 33.2538C54.6503 31.3297 58.5672 30.0985 62.831 29.3379L62.3042 26.3845ZM49.4896 30.5763L48.1364 27.8988C43.8252 30.0776 39.8803 32.9234 36.4591 36.3198L38.5726 38.4488L40.6862 40.5779C43.6609 37.6248 47.0925 35.149 50.8427 33.2538L49.4896 30.5763ZM38.5726 38.4488L36.4592 36.3197C33.0385 39.7153 30.1703 43.6322 27.9738 47.9149L30.6432 49.284L33.3126 50.653C35.2196 46.9348 37.7118 43.5304 40.6861 40.578L38.5726 38.4488ZM30.6432 49.284L27.9738 47.9148C25.7336 52.2827 24.3235 56.7421 23.4662 61.4777L26.4182 62.0121L29.3703 62.5464C30.136 58.3164 31.3749 54.4309 33.3126 50.6531L30.6432 49.284ZM26.4182 62.0121L23.4662 61.4778C22.6266 66.1171 22.357 70.799 22.2339 75.313L25.2327 75.3947L28.2316 75.4765C28.352 71.0616 28.6119 66.7369 29.3703 62.5463L26.4182 62.0121ZM25.2327 75.3947L22.2338 75.3135C22.1775 77.3926 22.1534 79.4656 22.1408 81.5257L25.1407 81.544L28.1407 81.5623C28.1531 79.5224 28.177 77.4959 28.2316 75.4759L25.2327 75.3947ZM25.1407 81.544L22.1408 81.5255C22.1335 82.7087 22.0992 84.0409 22.0656 85.4166C22.0325 86.776 22 88.1762 22 89.4354H25H28C28 88.2608 28.0304 86.9323 28.0639 85.563C28.0969 84.21 28.133 82.8134 28.1407 81.5625L25.1407 81.544ZM25 89.4354L22 89.4355L22.0008 116.824L25.0007 116.824L28.0008 116.824L28 89.4354L25 89.4354ZM25.0007 116.824L22.0008 116.824L22 138.197L25 138.197L28 138.198L28.0008 116.824L25.0007 116.824ZM25 138.197L22 138.211L22.127 166.182L25.127 166.168L28.127 166.154L28 138.184L25 138.197ZM25.127 166.168H22.127C22.127 168.602 22.126 171.049 22.1408 173.498L25.1407 173.479L28.1407 173.461C28.126 171.035 28.127 168.608 28.127 166.168H25.127ZM25.1407 173.479L22.1408 173.498C22.1534 175.561 22.1775 177.637 22.2341 179.719L25.233 179.637L28.2319 179.556C28.177 177.533 28.1531 175.504 28.1407 173.461L25.1407 173.479ZM25.233 179.637L22.2341 179.719C22.357 184.241 22.6271 188.93 23.4674 193.577L26.4195 193.043L29.3716 192.509C28.6124 188.311 28.352 183.978 28.2319 179.556L25.233 179.637ZM26.4195 193.043L23.4674 193.577C24.3243 198.316 25.7339 202.778 27.9719 207.149L30.6422 205.781L33.3125 204.414C31.376 200.633 30.1372 196.743 29.3716 192.509L26.4195 193.043ZM30.6422 205.781L27.972 207.149C30.1685 211.438 33.037 215.361 36.4577 218.761L38.5726 216.633L40.6876 214.506C37.7129 211.549 35.2199 208.139 33.3124 204.414L30.6422 205.781ZM38.5726 216.633L36.4577 218.761C39.8784 222.161 43.8221 225.011 48.1328 227.192L49.4876 224.516L50.8424 221.839C47.0931 219.941 43.6624 217.463 40.6876 214.506L38.5726 216.633ZM49.4876 224.516L48.133 227.193C52.5291 229.417 57.0164 230.818 61.7822 231.669L62.3095 228.715L62.8368 225.762C58.5706 225 54.652 223.767 50.8422 221.839L49.4876 224.516ZM62.3095 228.715L61.782 231.669C66.4508 232.502 71.1638 232.771 75.7099 232.893L75.7904 229.894L75.8708 226.895C71.423 226.776 67.0626 226.517 62.837 225.762L62.3095 228.715ZM75.7904 229.894L75.7098 232.893C77.8042 232.949 79.8921 232.973 81.9673 232.985L81.9853 229.985L82.0034 226.985C79.9476 226.973 77.9061 226.95 75.871 226.895L75.7904 229.894ZM81.9853 229.985L81.9671 232.985C84.4298 233 86.8913 232.999 89.3403 232.999V229.999V226.999C86.8858 226.999 84.4443 227 82.0036 226.985L81.9853 229.985ZM89.3403 229.999L89.3402 232.999L117.501 233L117.502 230L117.502 227L89.3403 226.999L89.3403 229.999ZM117.502 230V233H138.804V230V227H117.502V230ZM138.804 230L138.804 233L166.911 232.999L166.911 229.999L166.911 226.999L138.804 227L138.804 230ZM166.911 229.999V232.999C169.355 232.999 171.812 233 174.27 232.985L174.252 229.985L174.234 226.985C171.798 227 169.361 226.999 166.911 226.999V229.999ZM174.252 229.985L174.27 232.985C176.341 232.973 178.425 232.949 180.515 232.893L180.435 229.894L180.354 226.895C178.323 226.95 176.285 226.973 174.234 226.985L174.252 229.985ZM180.435 229.894L180.515 232.893C185.055 232.77 189.761 232.502 194.423 231.667L193.895 228.714L193.366 225.761C189.147 226.516 184.795 226.775 180.354 226.895L180.435 229.894ZM193.895 228.714L194.423 231.667C199.178 230.816 203.655 229.416 208.041 227.192L206.685 224.517L205.328 221.841C201.529 223.767 197.62 225 193.366 225.761L193.895 228.714ZM206.685 224.517L208.041 227.192C212.345 225.01 216.283 222.16 219.697 218.759L217.58 216.633L215.463 214.508C212.494 217.465 209.07 219.944 205.328 221.841L206.685 224.517ZM217.58 216.633L219.697 218.759C223.111 215.359 225.974 211.437 228.166 207.149L225.495 205.783L222.823 204.418C220.919 208.142 218.432 211.551 215.463 214.508L217.58 216.633ZM225.495 205.783L228.166 207.149C230.401 202.776 231.808 198.312 232.663 193.571L229.711 193.038L226.759 192.505C225.994 196.743 224.757 200.634 222.823 204.418L225.495 205.783ZM229.711 193.038L232.663 193.571C233.501 188.926 233.771 184.239 233.893 179.718L230.894 179.637L227.895 179.556C227.775 183.977 227.516 188.308 226.759 192.505L229.711 193.038ZM230.894 179.637L233.893 179.719C233.95 177.636 233.974 175.56 233.986 173.497L230.986 173.479L227.986 173.462C227.974 175.504 227.95 177.533 227.895 179.556L230.894 179.637ZM230.986 173.479L233.986 173.498C234.001 171.05 234 168.602 234 166.168H231H228C228 168.608 228.001 171.035 227.986 173.461L230.986 173.479ZM231 166.168C234 166.168 234 166.168 234 166.168C234 166.167 234 166.167 234 166.167C234 166.166 234 166.165 234 166.163C234 166.16 234 166.155 234 166.148C234 166.135 234 166.115 234 166.089C234 166.037 234 165.96 234 165.859C234 165.658 234 165.362 234 164.986C234 164.234 234 163.159 234 161.867C234 159.283 233.999 155.833 233.999 152.368C233.999 145.437 233.998 138.444 233.998 138.197H230.998H227.998C227.998 138.444 227.999 145.437 227.999 152.368C227.999 155.834 228 159.284 228 161.867C228 163.159 228 164.234 228 164.987C228 165.363 228 165.658 228 165.86C228 165.96 228 166.037 228 166.089C228 166.115 228 166.135 228 166.148C228 166.155 228 166.16 228 166.163C228 166.165 228 166.166 228 166.167C228 166.167 228 166.168 228 166.168C228 166.168 228 166.168 231 166.168ZM230.998 138.197H233.998V116.802H230.998H227.998V138.197H230.998ZM230.998 116.802H233.998C233.998 116.62 233.999 109.631 233.999 102.687C233.999 99.2152 234 95.7548 234 93.1624C234 91.8662 234 90.787 234 90.0318C234 89.6542 234 89.3576 234 89.1554C234 89.0544 234 88.9769 234 88.9247C234 88.8985 234 88.8788 234 88.8655C234 88.8588 234 88.8539 234 88.8505C234 88.8488 234 88.8476 234 88.8467C234 88.8463 234 88.846 234 88.8458C234 88.8456 234 88.8455 231 88.8453C228 88.8452 228 88.8453 228 88.8455C228 88.8457 228 88.846 228 88.8464C228 88.8473 228 88.8485 228 88.8502C228 88.8535 228 88.8585 228 88.8652C228 88.8784 228 88.8982 228 88.9243C228 88.9765 228 89.054 228 89.1551C228 89.3573 228 89.6539 228 90.0315C228 90.7866 228 91.8659 228 93.1621C228 95.7545 227.999 99.2149 227.999 102.687C227.999 109.63 227.998 116.619 227.998 116.802H230.998Z" fill="url(#paint1_linear_4004_133)" mask="url(#path-4-inside-1_4004_133)"/>
<path d="M135 88H163V97.2941H135V88Z" fill="white"/>
<path d="M102.333 120.529H111.667V129.824H102.333V120.529Z" fill="white"/>
<path d="M102.333 148.412H111.667V157.706H102.333V148.412Z" fill="white"/>
<path d="M111.667 157.706H135V167H111.667V157.706Z" fill="white"/>
<path d="M144.333 157.706H153.667V167H144.333V157.706Z" fill="white"/>
<path d="M135 97.2941H144.333V157.706H135V97.2941Z" fill="white"/>
<path d="M135 111.235H111.667V120.529H135V111.235Z" fill="white"/>
<path d="M144.333 111.235V120.529H153.667V111.235H144.333Z" fill="white"/>
<path d="M102.333 129.824H93V139.118V148.412H102.333V139.118V129.824Z" fill="white"/>
</g>
<defs>
<filter id="filter0_d_4004_133" x="22.5" y="25" width="211" height="210" filterUnits="userSpaceOnUse" color-interpolation-filters="sRGB">
<feFlood flood-opacity="0" result="BackgroundImageFix"/>
<feColorMatrix in="SourceAlpha" type="matrix" values="0 0 0 0 0 0 0 0 0 0 0 0 0 0 0 0 0 0 127 0" result="hardAlpha"/>
<feOffset dy="2.5"/>
<feGaussianBlur stdDeviation="1.25"/>
<feColorMatrix type="matrix" values="0 0 0 0 0 0 0 0 0 0 0 0 0 0 0 0 0 0 0.3 0"/>
<feBlend mode="normal" in2="BackgroundImageFix" result="effect1_dropShadow_4004_133"/>
<feBlend mode="normal" in="SourceGraphic" in2="effect1_dropShadow_4004_133" result="shape"/>
</filter>
<linearGradient id="paint0_linear_4004_133" x1="128" y1="144" x2="128" y2="212.5" gradientUnits="userSpaceOnUse">
<stop/>
<stop offset="1" stop-color="#1E2220"/>
</linearGradient>
<linearGradient id="paint1_linear_4004_133" x1="25" y1="25" x2="231" y2="230" gradientUnits="userSpaceOnUse">
<stop stop-color="white"/>
<stop offset="0.502552" stop-color="#CCCCCC" stop-opacity="0"/>
<stop offset="1" stop-color="white"/>
</linearGradient>
</defs>
</svg>
