<svg width="32" height="32" viewBox="0 0 32 32" fill="none" xmlns="http://www.w3.org/2000/svg">
<rect width="32" height="32" rx="2" fill="black"/>
<path d="M17 7H23V9H17V7Z" fill="white"/>
<path d="M10 14H12V16H10V14Z" fill="white"/>
<path d="M10 20H12V22H10V20Z" fill="white"/>
<path d="M12 22H17V24H12V22Z" fill="white"/>
<path d="M19 22H21V24H19V22Z" fill="white"/>
<path d="M17 9H19V22H17V9Z" fill="white"/>
<path d="M17 12H12V14H17V12Z" fill="white"/>
<path d="M19 12V14H21V12H19Z" fill="white"/>
<path d="M10 16H8V18V20H10V18V16Z" fill="white"/>
</svg>
